Coordinates
version=1
nRows=5
nColumns=63
inDegrees=yes

Units are S.I. units (second, meters, Newtons, ...)
If the header above contains a line with 'inDegrees', this indicates whether rotational values are in degrees (yes) or radians (no).

endheader
time	pelvis_tilt	pelvis_list	pelvis_rotation	pelvis_tx	pelvis_ty	pelvis_tz	hip_flexion_r	hip_adduction_r	hip_rotation_r	knee_angle_r	knee_angle_r_beta	ankle_angle_r	subtalar_angle_r	mtp_angle_r	hip_flexion_l	hip_adduction_l	hip_rotation_l	knee_angle_l	knee_angle_l_beta	ankle_angle_l	subtalar_angle_l	mtp_angle_l	L5_S1_Flex_Ext	L5_S1_Lat_Bending	L5_S1_axial_rotation	L4_L5_Flex_Ext	L4_L5_Lat_Bending	L4_L5_axial_rotation	L3_L4_Flex_Ext	L3_L4_Lat_Bending	L3_L4_axial_rotation	L2_L3_Flex_Ext	L2_L3_Lat_Bending	L2_L3_axial_rotation	L1_L2_Flex_Ext	L1_L2_Lat_Bending	L1_L2_axial_rotation	L1_T12_Flex_Ext	L1_T12_Lat_Bending	L1_T12_axial_rotation	Abs_r3	Abs_r2	Abs_r1	Abs_t1	Abs_t2	neck_flexion	neck_bending	neck_rotation	arm_flex_r	arm_add_r	arm_rot_r	elbow_flex_r	pro_sup_r	wrist_flex_r	wrist_dev_r	arm_flex_l	arm_add_l	arm_rot_l	elbow_flex_l	pro_sup_l	wrist_flex_l	wrist_dev_l
      2.44067797	      0.86792745	      0.41480379	     91.75080447	      0.02943211	      0.85508446	      0.66572446	     -0.47222288	     -0.75183402	      6.15776440	     13.80931815	      0.24101807	     41.45146549	     -2.12825955	      0.00000000	     -5.81616961	      0.88459646	      7.32629722	      3.62952692	      0.06334719	     36.33614461	     -9.15053871	      0.00000000	      0.06761514	     -0.17767784	      1.22197961	      0.12556808	     -0.23631153	      1.29835334	      0.11108492	     -0.43200590	      1.29835334	      0.07727735	     -0.43200590	      1.06923216	      0.06278742	     -0.36232065	      0.99285843	      0.03863529	     -0.27522298	      0.91648471	      0.48296821	     -2.00992727	      6.79628400	      0.00000000	      0.00000000	     27.42983877	      6.07844861	     -9.62424901	     -8.76119066	    -10.24870419	     -0.96098221	    111.32745783	     81.94845799	    -10.32462909	      5.26592986	      7.95316371	     -9.62207666	    135.66135029	      7.75889159	      3.96712605	     -2.77308340	    -15.08023655
      2.45762712	      1.09750699	      0.66202478	     92.49648606	      0.02760298	      0.85552192	      0.66363965	     -1.09664352	     -0.52236180	      5.64778685	     13.46805624	      0.23506193	     41.31783732	     -2.40770453	      0.00000000	     -6.26537702	      0.59744620	      8.13597739	      3.37264196	      0.05886371	     36.33518326	     -9.13089742	      0.00000000	      0.04426303	     -0.13356183	      1.02866642	      0.08220087	     -0.17763724	      1.09295807	      0.07271973	     -0.32474224	      1.09295807	      0.05058822	     -0.32474224	      0.90008311	      0.04110265	     -0.27235929	      0.83579146	      0.02529190	     -0.20688728	      0.77149981	      0.31616639	     -1.51087815	      5.72113400	      0.00000000	      0.00000000	     27.25336747	      6.37680089	     -9.14991841	     -9.20687647	    -10.49486769	     -0.89749069	    110.83483400	     81.96152185	     -9.89694664	      5.07722574	      7.48329076	     -9.42255091	    135.59484874	      7.49978775	      3.77236152	     -2.80291710	    -15.59215885
      2.47457627	      1.14086762	      0.80887763	     92.75261934	      0.02634419	      0.85568281	      0.66197185	     -1.35559035	     -0.51091352	      5.51469744	     13.54506590	      0.23640600	     41.43437990	     -2.53547526	      0.00000000	     -6.52566811	      0.57115372	      8.43683109	      3.31890743	      0.05792586	     36.44373575	     -9.11849641	      0.00000000	      0.02982995	     -0.11049823	      0.96626209	      0.05539720	     -0.14696265	      1.02665347	      0.04900762	     -0.26866541	      1.02665347	      0.03409265	     -0.26866541	      0.84547933	      0.02770009	     -0.22532800	      0.78508795	      0.01704483	     -0.17116176	      0.72469657	      0.21307235	     -1.24997812	      5.37405987	      0.00000000	      0.00000000	     27.00824187	      6.52586796	     -8.98620365	     -9.83867223	    -10.79146537	     -0.92347540	    110.37346155	     81.99988187	     -9.79203341	      4.87910067	      7.28164212	     -9.29063877	    135.53887532	      7.41214440	      3.67710572	     -2.71985320	    -15.66444955
      2.49152542	      1.31519237	      0.99163185	     93.97731307	      0.02420993	      0.85585985	      0.66087985	     -1.87202135	     -0.27346320	      4.68746746	     13.27315939	      0.23166033	     41.28670721	     -3.04512748	      0.00000000	     -6.71496640	      0.29012307	     10.26058826	      3.24284233	      0.05659828	     36.32774011	     -9.85990215	      0.00000000	      0.00344566	     -0.07380973	      0.64978616	      0.00639893	     -0.09816694	      0.69039780	      0.00566087	     -0.17946097	      0.69039780	      0.00393804	     -0.17946097	      0.56856289	      0.00319964	     -0.15051280	      0.52795126	      0.00196885	     -0.11433127	      0.48733962	      0.02461197	     -0.83495042	      3.61391570	      0.00000000	      0.00000000	     26.83710099	      6.95997790	     -8.17055588	     -9.95627233	    -11.00005435	     -0.45918349	    109.07890612	     82.11545652	     -9.28275874	      3.19980145	      6.88154562	     -9.12547632	    135.60594957	      6.77773362	      3.32528990	     -1.70469374	    -15.60850832
      2.50847458	      1.31504793	      0.98802668	     94.04141490	      0.02330546	      0.85562219	      0.66012803	     -1.91186689	     -0.31930663	      4.70137138	     13.35355478	      0.23306350	     41.27305453	     -3.04091089	      0.00000000	     -6.75971995	      0.34664600	     10.26660409	      3.21643129	      0.05613732	     36.39416639	     -9.89314491	      0.00000000	     -0.00120279	     -0.05699214	      0.64419078	     -0.00223370	     -0.07579955	      0.68445270	     -0.00197606	     -0.13857070	      0.68445270	     -0.00137467	     -0.13857070	      0.56366693	     -0.00111691	     -0.11621838	      0.52340501	     -0.00068727	     -0.08828083	      0.48314309	     -0.00859139	     -0.64470652	      3.58279587	      0.00000000	      0.00000000	     26.89228825	      6.89750793	     -8.12155955	    -10.41023603	    -11.13363186	     -0.52221296	    108.29575613	     82.12390375	     -9.33116348	      3.24723766	      6.89899698	     -9.06999242	    135.62930796	      6.79754982	      3.33807644	     -1.66147444	    -15.60671144
